<svg width="109" height="42" viewBox="0 0 109 42" fill="none" xmlns="http://www.w3.org/2000/svg">
<path d="M8.93555 11.584C10.8789 11.584 12.4805 11.8184 13.7402 12.2871C15.0098 12.7559 15.9521 13.4639 16.5674 14.4111C17.1826 15.3584 17.4902 16.5547 17.4902 18C17.4902 18.9766 17.3047 19.8311 16.9336 20.5635C16.5625 21.2959 16.0742 21.916 15.4688 22.4238C14.8633 22.9316 14.209 23.3467 13.5059 23.6689L19.8047 33H14.7656L9.65332 24.7822H7.23633V33H2.69531V11.584H8.93555ZM8.61328 15.3047H7.23633V21.0908H8.70117C10.2051 21.0908 11.2793 20.8418 11.9238 20.3438C12.5781 19.8359 12.9053 19.0938 12.9053 18.1172C12.9053 17.1016 12.5537 16.3789 11.8506 15.9492C11.1572 15.5195 10.0781 15.3047 8.61328 15.3047ZM27.8574 16.2861C30.0547 16.2861 31.7393 16.7646 32.9111 17.7217C34.083 18.6787 34.6689 20.1338 34.6689 22.0869V33H31.5488L30.6846 30.7734H30.5674C30.0986 31.3594 29.6201 31.8379 29.1318 32.209C28.6436 32.5801 28.082 32.8535 27.4473 33.0293C26.8125 33.2051 26.041 33.293 25.1328 33.293C24.166 33.293 23.2969 33.1074 22.5254 32.7363C21.7637 32.3652 21.1631 31.7988 20.7236 31.0371C20.2842 30.2656 20.0645 29.2891 20.0645 28.1074C20.0645 26.3691 20.6748 25.0898 21.8955 24.2695C23.1162 23.4395 24.9473 22.9805 27.3887 22.8926L30.2305 22.8047V22.0869C30.2305 21.2275 30.0059 20.5977 29.5566 20.1973C29.1074 19.7969 28.4824 19.5967 27.6816 19.5967C26.8906 19.5967 26.1143 19.709 25.3525 19.9336C24.5908 20.1582 23.8291 20.4414 23.0674 20.7832L21.5879 17.7656C22.457 17.3066 23.4287 16.9453 24.5029 16.6816C25.5869 16.418 26.7051 16.2861 27.8574 16.2861ZM30.2305 25.4121L28.502 25.4707C27.0566 25.5098 26.0508 25.7686 25.4844 26.2471C24.9277 26.7256 24.6494 27.3555 24.6494 28.1367C24.6494 28.8203 24.8496 29.3086 25.25 29.6016C25.6504 29.8848 26.1729 30.0264 26.8174 30.0264C27.7744 30.0264 28.5801 29.7432 29.2344 29.1768C29.8984 28.6104 30.2305 27.8047 30.2305 26.7598V25.4121Z" fill="#0F1B2A"/>
<path d="M46.7207 16.4766C48.6445 16.4766 50.1875 17.1797 51.3496 18.5859C52.5215 19.9922 53.1074 22.082 53.1074 24.8555C53.1074 26.6914 52.834 28.2393 52.2871 29.499C51.75 30.749 50.9932 31.6963 50.0166 32.3408C49.0498 32.9756 47.9219 33.293 46.6328 33.293C45.8125 33.293 45.0996 33.1855 44.4941 32.9707C43.8887 32.7559 43.3711 32.4775 42.9414 32.1357C42.5117 31.7842 42.1504 31.4033 41.8574 30.9932H41.6523C41.7012 31.3838 41.7451 31.8184 41.7842 32.2969C41.833 32.7656 41.8574 33.1953 41.8574 33.5859V40.1924H38.4004V16.7842H41.2129L41.6963 19.0254H41.8574C42.1602 18.5664 42.5264 18.1416 42.9561 17.751C43.3955 17.3604 43.9229 17.0527 44.5381 16.8281C45.1631 16.5938 45.8906 16.4766 46.7207 16.4766ZM45.7979 19.2891C44.8506 19.2891 44.0889 19.4795 43.5127 19.8604C42.9463 20.2314 42.5312 20.793 42.2676 21.5449C42.0137 22.2969 41.877 23.2393 41.8574 24.3721V24.8555C41.8574 26.0566 41.9795 27.0771 42.2236 27.917C42.4775 28.7471 42.8926 29.3818 43.4688 29.8213C44.0547 30.251 44.8457 30.4658 45.8418 30.4658C46.6816 30.4658 47.375 30.2363 47.9219 29.7773C48.4785 29.3184 48.8936 28.6641 49.167 27.8145C49.4404 26.9648 49.5771 25.9639 49.5771 24.8115C49.5771 23.0635 49.2646 21.7061 48.6396 20.7393C48.0244 19.7725 47.0771 19.2891 45.7979 19.2891ZM70.4473 24.8555C70.4473 26.2031 70.2715 27.3994 69.9199 28.4443C69.5684 29.4893 69.0557 30.373 68.3818 31.0957C67.708 31.8086 66.8975 32.3555 65.9502 32.7363C65.0029 33.1074 63.9336 33.293 62.7422 33.293C61.6289 33.293 60.6084 33.1074 59.6807 32.7363C58.7529 32.3555 57.9473 31.8086 57.2637 31.0957C56.5898 30.373 56.0674 29.4893 55.6963 28.4443C55.3252 27.3994 55.1396 26.2031 55.1396 24.8555C55.1396 23.0684 55.4473 21.5547 56.0625 20.3145C56.6875 19.0645 57.5762 18.1123 58.7285 17.458C59.8809 16.8037 61.2529 16.4766 62.8447 16.4766C64.3389 16.4766 65.6572 16.8037 66.7998 17.458C67.9424 18.1123 68.8359 19.0645 69.4805 20.3145C70.125 21.5645 70.4473 23.0781 70.4473 24.8555ZM58.6846 24.8555C58.6846 26.0371 58.8262 27.0479 59.1094 27.8877C59.4023 28.7275 59.8516 29.3721 60.457 29.8213C61.0625 30.2607 61.8438 30.4805 62.8008 30.4805C63.7578 30.4805 64.5391 30.2607 65.1445 29.8213C65.75 29.3721 66.1943 28.7275 66.4775 27.8877C66.7607 27.0479 66.9023 26.0371 66.9023 24.8555C66.9023 23.6738 66.7607 22.6729 66.4775 21.8525C66.1943 21.0225 65.75 20.3926 65.1445 19.9629C64.5391 19.5234 63.7529 19.3037 62.7861 19.3037C61.3604 19.3037 60.3203 19.7822 59.666 20.7393C59.0117 21.6963 58.6846 23.0684 58.6846 24.8555ZM81.6201 16.4766C81.8936 16.4766 82.1914 16.4912 82.5137 16.5205C82.8359 16.5498 83.1143 16.5889 83.3486 16.6377L83.0264 19.8604C82.8213 19.8018 82.5674 19.7578 82.2646 19.7285C81.9717 19.6992 81.708 19.6846 81.4736 19.6846C80.8584 19.6846 80.2725 19.7871 79.7158 19.9922C79.1592 20.1875 78.666 20.4902 78.2363 20.9004C77.8066 21.3008 77.4697 21.8037 77.2256 22.4092C76.9814 23.0146 76.8594 23.7178 76.8594 24.5186V33H73.4023V16.7842H76.0977L76.5664 19.6406H76.7275C77.0498 19.0645 77.4502 18.5371 77.9287 18.0586C78.4072 17.5801 78.9541 17.1992 79.5693 16.916C80.1943 16.623 80.8779 16.4766 81.6201 16.4766ZM91.3867 30.5098C91.8359 30.5098 92.2803 30.4707 92.7197 30.3926C93.1592 30.3047 93.5596 30.2021 93.9209 30.085V32.6924C93.54 32.8584 93.0469 33 92.4414 33.1172C91.8359 33.2344 91.2061 33.293 90.5518 33.293C89.6338 33.293 88.8086 33.1416 88.0762 32.8389C87.3438 32.5264 86.7627 31.9941 86.333 31.2422C85.9033 30.4902 85.6885 29.4502 85.6885 28.1221V19.4062H83.4766V17.8682L85.8496 16.6523L86.9775 13.1807H89.1455V16.7842H93.7891V19.4062H89.1455V28.0781C89.1455 28.8984 89.3506 29.5088 89.7607 29.9092C90.1709 30.3096 90.7129 30.5098 91.3867 30.5098ZM107.115 28.3711C107.115 29.4355 106.856 30.334 106.339 31.0664C105.821 31.7988 105.064 32.3555 104.068 32.7363C103.082 33.1074 101.871 33.293 100.436 33.293C99.3027 33.293 98.3262 33.21 97.5059 33.0439C96.6953 32.8877 95.9287 32.6436 95.2061 32.3115V29.3379C95.9775 29.6992 96.8418 30.0117 97.7988 30.2754C98.7656 30.5391 99.6787 30.6709 100.538 30.6709C101.671 30.6709 102.486 30.4951 102.984 30.1436C103.482 29.7822 103.731 29.3037 103.731 28.708C103.731 28.3564 103.629 28.0439 103.424 27.7705C103.229 27.4873 102.857 27.1992 102.311 26.9062C101.773 26.6035 100.982 26.2422 99.9375 25.8223C98.9121 25.4121 98.0479 25.002 97.3447 24.5918C96.6416 24.1816 96.1094 23.6885 95.748 23.1123C95.3867 22.5264 95.2061 21.7793 95.2061 20.8711C95.2061 19.4355 95.7725 18.3467 96.9053 17.6045C98.0479 16.8525 99.5566 16.4766 101.432 16.4766C102.428 16.4766 103.365 16.5791 104.244 16.7842C105.133 16.9795 106.002 17.2676 106.852 17.6484L105.768 20.2412C105.035 19.9189 104.298 19.6553 103.556 19.4502C102.823 19.2354 102.076 19.1279 101.314 19.1279C100.426 19.1279 99.7471 19.2646 99.2783 19.5381C98.8193 19.8115 98.5898 20.2021 98.5898 20.71C98.5898 21.0908 98.7021 21.4131 98.9268 21.6768C99.1514 21.9404 99.5371 22.2041 100.084 22.4678C100.641 22.7314 101.412 23.0586 102.398 23.4492C103.365 23.8203 104.2 24.2109 104.903 24.6211C105.616 25.0215 106.163 25.5146 106.544 26.1006C106.925 26.6865 107.115 27.4434 107.115 28.3711Z" fill="url(#paint0_linear_58_5)"/>
<defs>
<linearGradient id="paint0_linear_58_5" x1="109" y1="42" x2="-4.6105" y2="-88.0649" gradientUnits="userSpaceOnUse">
<stop stop-color="#2389F5"/>
<stop offset="0.705" stop-color="#1957C3"/>
<stop offset="1" stop-color="#0F2590"/>
</linearGradient>
</defs>
</svg>
